<?xml version="1.0" standalone="no"?><!DOCTYPE svg PUBLIC "-//W3C//DTD SVG 1.1//EN" "http://www.w3.org/Graphics/SVG/1.1/DTD/svg11.dtd"><svg t="1710429071186" class="icon" viewBox="0 0 1024 1024" version="1.1" xmlns="http://www.w3.org/2000/svg" p-id="4393" xmlns:xlink="http://www.w3.org/1999/xlink" width="200" height="200"><path d="M170.938182 855.621818l30.487273-35.165091a420.631273 420.631273 0 0 0 53.294545 39.237818l-24.622545 39.493819a467.153455 467.153455 0 0 1-59.159273-43.566546z m124.416 77.730909l18.525091-42.682182a477.556364 477.556364 0 0 0 62.766545 22.109091l-12.404363 44.869819a524.101818 524.101818 0 0 1-68.887273-24.273455z m140.683636 39.005091l6.283637-46.126545c21.876364 2.978909 44.148364 4.538182 66.629818 4.654545l-0.232728 46.545455a563.013818 563.013818 0 0 1-72.680727-5.073455z m146.222546 0.698182l-5.818182-46.173091c22.295273-2.792727 44.171636-7.051636 65.512727-12.683636l11.892364 44.986182c-23.342545 6.167273-47.243636 10.821818-71.586909 13.893818z m141.940363-37.888l-18.152727-42.868364a453.818182 453.818182 0 0 0 59.136-30.254545l24.203636 39.796364a500.363636 500.363636 0 0 1-65.186909 33.326545z m124.997818-76.450909l-30.114909-35.490909 3.397819-2.909091 30.533818 35.141818-3.816728 3.258182z m3.816728-684.567273l-30.487273 35.141818a420.631273 420.631273 0 0 0-53.294545-39.214545l24.622545-39.517091c21.061818 13.125818 40.843636 27.694545 59.159273 43.589818zM728.599273 96.349091l-18.525091 42.705454a477.556364 477.556364 0 0 0-62.789818-22.10909l12.404363-44.869819a524.101818 524.101818 0 0 1 68.887273 24.273455zM587.869091 57.390545l-6.283636 46.126546a516.491636 516.491636 0 0 0-66.629819-4.654546l0.256-46.545454c24.506182 0.116364 48.779636 1.838545 72.657455 5.073454z m-146.199273-0.698181l5.818182 46.173091c-22.295273 2.792727-44.194909 7.051636-65.512727 12.706909l-11.915637-45.009455a546.234182 546.234182 0 0 1 71.610182-13.870545z m-141.963636 37.888l18.152727 42.868363a453.818182 453.818182 0 0 0-59.112727 30.254546l-24.203637-39.796364a500.363636 500.363636 0 0 1 65.163637-33.326545zM174.754909 171.031273l30.138182 35.490909L201.448727 209.454545 170.938182 174.312727l3.793454-3.258182z m82.571636 54.807272c49.152 0 89.367273 12.660364 119.901091 38.725819 29.789091 26.065455 44.683636 61.067636 44.683637 104.261818 0 61.067636-29.044364 101.282909-86.388364 120.645818 30.533818 9.681455 54.365091 25.320727 71.493818 46.917818 17.128727 21.597091 26.065455 47.662545 26.065455 78.941091 0 47.662545-17.128727 87.133091-49.896727 117.666909-33.512727 29.789091-76.706909 45.428364-129.582546 45.428364-47.662545 0-87.133091-12.660364-118.411636-37.236364-38.725818-29.789091-59.578182-75.217455-64.046546-134.795636H117.294545c2.234182 45.428364 17.873455 79.685818 47.662546 103.517091 23.831273 19.362909 52.875636 29.044364 87.877818 29.044363 40.96 0 73.728-11.915636 99.048727-35.002181 23.831273-23.086545 35.746909-52.130909 35.746909-87.133091 0-33.512727-11.915636-59.578182-34.257454-78.941091-22.341818-19.362909-52.130909-28.299636-90.112-28.299637H216.343273v-37.236363h42.449454c37.981091 0 67.025455-8.936727 87.877818-26.065455 19.362909-17.873455 29.789091-42.449455 29.789091-75.217454 0-31.278545-10.426182-56.599273-30.533818-75.962182-21.597091-19.362909-51.386182-29.044364-88.622545-29.044364-37.236364 0-67.025455 10.426182-88.622546 32.023273-22.341818 20.852364-35.746909 49.896727-40.215272 88.622545H83.037091c4.468364-49.896727 23.086545-89.367273 55.109818-118.411636 30.533818-28.299636 70.004364-42.449455 119.156364-42.449455z m272.570182 10.426182h189.160728c82.664727 0 145.221818 24.576 186.926545 74.472728 37.981091 44.683636 57.344 108.730182 57.344 191.394909 0 81.175273-21.597091 145.221818-64.046545 192.139636C854.574545 743.424 791.272727 768 709.352727 768h-179.479272V236.264727z m45.428364 40.215273v451.304727h127.348364c70.749091 0 125.114182-20.107636 162.350545-60.322909 35.746909-38.725818 53.620364-93.835636 53.620364-165.329454 0-74.472727-15.639273-129.582545-46.917819-166.074182-34.257455-40.215273-87.877818-59.578182-159.371636-59.578182H575.301818z" fill="#ffffff" p-id="4394"></path></svg>