<?xml version="1.0" standalone="no"?><!DOCTYPE svg PUBLIC "-//W3C//DTD SVG 1.1//EN" "http://www.w3.org/Graphics/SVG/1.1/DTD/svg11.dtd"><svg t="1709623980699" class="icon" viewBox="0 0 1024 1024" version="1.1" xmlns="http://www.w3.org/2000/svg" p-id="5187" xmlns:xlink="http://www.w3.org/1999/xlink" width="200" height="200"><path d="M477.866667 812.629333C470.357333 782.08 442.282667 768 384.256 768H192A64 64 0 0 1 128 704V256a64 64 0 0 1 64-64h224c38.229333 0 72.533333 16.768 96 43.349333A127.701333 127.701333 0 0 1 608 192h224A64 64 0 0 1 896 256v448a64 64 0 0 1-64 64h-192.256c-58.794667 0-86.826667 14.464-93.909333 45.866667a36.992 36.992 0 0 0-0.512 3.285333 16.554667 16.554667 0 0 1-16.213334 14.848h-34.304a16.426667 16.426667 0 0 1-16.213333-14.677333 45.184 45.184 0 0 0-0.725333-4.693334z m2.133333-89.941333V320a64 64 0 0 0-56.533333-63.573333L416 256H192v448h192.256c37.930667 0 69.888 6.186667 95.018667 18.346667z m64 0l0.725333-0.341333c25.173333-12.16 57.088-18.346667 95.018667-18.346667H832V256h-224l-7.466667 0.426667A64 64 0 0 0 544 320z" fill="#ffffff" p-id="5188"></path></svg>