<?xml version="1.0" standalone="no"?><!DOCTYPE svg PUBLIC "-//W3C//DTD SVG 1.1//EN" "http://www.w3.org/Graphics/SVG/1.1/DTD/svg11.dtd"><svg t="1708847294687" class="icon" viewBox="0 0 1024 1024" version="1.1" xmlns="http://www.w3.org/2000/svg" p-id="4280" xmlns:xlink="http://www.w3.org/1999/xlink" width="200" height="200"><path d="M852.992 150.528H170.496c-37.888 0-68.096 30.72-68.096 68.096v426.496c0 37.888 30.72 68.096 68.096 68.096H322.56l-86.528 153.6a36.352 36.352 0 0 0 12.8 49.152c16.896 9.728 37.888 4.096 47.616-13.312l34.816-61.952h360.96l34.816 61.952c9.728 17.408 31.232 23.04 47.616 13.312 16.896-9.728 22.528-31.744 12.8-49.152l-86.528-153.6h152.064c37.888 0 68.096-30.72 68.096-68.096V218.624c0-37.376-30.208-68.096-68.096-68.096z m-471.04 181.248l169.984-23.04c9.216-1.024 15.36 9.216 10.24 16.384l-43.008 61.952 128.512 89.088c7.168 5.12 9.216 15.36 4.096 22.528l-34.304 49.152c-5.12 7.168-15.36 9.216-22.528 4.096l-128-88.576-40.96 59.392c-5.12 7.68-16.896 5.12-18.944-3.584L368.64 351.744c-2.56-9.216 4.096-18.432 13.312-19.968z m277.504 451.584H364.032l39.424-69.632h217.088l38.912 69.632z" p-id="4281" fill="#ffffff"></path></svg>