<?xml version="1.0" standalone="no"?><!DOCTYPE svg PUBLIC "-//W3C//DTD SVG 1.1//EN" "http://www.w3.org/Graphics/SVG/1.1/DTD/svg11.dtd"><svg t="1708954976641" class="icon" viewBox="0 0 1024 1024" version="1.1" xmlns="http://www.w3.org/2000/svg" p-id="10391" xmlns:xlink="http://www.w3.org/1999/xlink" width="200" height="200"><path d="M69.12 514.56c-10.24 0-20.48-7.68-25.6-17.92-2.56-10.24 0-20.48 7.68-28.16L422.4 122.88c38.4-35.84 99.84-35.84 138.24 0l366.08 343.04c10.24 10.24 10.24 25.6 0 35.84-10.24 10.24-25.6 10.24-35.84 2.56L524.8 163.84c-20.48-17.92-48.64-17.92-69.12 0L84.48 506.88c-2.56 5.12-7.68 7.68-15.36 7.68z m0 0" p-id="10392" fill="#ffffff"></path><path d="M696.32 936.96h-128V673.28c0-43.52-35.84-76.8-76.8-76.8-43.52 0-76.8 35.84-76.8 76.8v261.12h-128c-56.32 0-104.96-46.08-104.96-102.4V476.16c0-15.36 12.8-28.16 28.16-28.16 15.36 0 28.16 12.8 28.16 28.16v355.84c0 12.8 5.12 25.6 15.36 35.84 10.24 10.24 23.04 15.36 35.84 15.36H358.4v-207.36c0-71.68 58.88-130.56 130.56-130.56s130.56 58.88 130.56 130.56v207.36h74.24c12.8 0 25.6-5.12 35.84-12.8 10.24-10.24 15.36-23.04 15.36-35.84v-358.4c0-15.36 12.8-28.16 28.16-28.16 15.36 0 28.16 12.8 28.16 28.16v355.84c0 56.32-46.08 102.4-104.96 104.96z m0 0" p-id="10393" fill="#ffffff"></path></svg>