<?xml version="1.0" standalone="no"?><!DOCTYPE svg PUBLIC "-//W3C//DTD SVG 1.1//EN" "http://www.w3.org/Graphics/SVG/1.1/DTD/svg11.dtd"><svg t="1710429453955" class="icon" viewBox="0 0 1024 1024" version="1.1" xmlns="http://www.w3.org/2000/svg" p-id="5478" xmlns:xlink="http://www.w3.org/1999/xlink" width="200" height="200"><path d="M723.2 0c-83.2 0-151.466667 68.266667-151.466667 151.466667 0 83.2 151.466667 296.533333 151.466667 296.533333S874.666667 236.8 874.666667 151.466667C874.666667 68.266667 806.4 0 723.2 0z m0 192c-36.266667 0-64-27.733333-64-64s27.733333-64 64-64 64 27.733333 64 64-29.866667 64-64 64z" fill="#ffffff" p-id="5479"></path><path d="M800 320s0 2.133333-2.133333 2.133333c2.133333 0 2.133333-2.133333 2.133333-2.133333z" fill="#ffffff" p-id="5480"></path><path d="M887.466667 247.466667c-6.4 14.933333-14.933333 29.866667-21.333334 44.8 6.4 8.533333 10.666667 19.2 17.066667 27.733333h-32c-8.533333 14.933333-17.066667 29.866667-25.6 42.666667h78.933333c19.2 46.933333 29.866667 96 34.133334 149.333333h-170.666667c0-19.2-2.133333-36.266667-4.266667-55.466667-2.133333 2.133333-4.266667 4.266667-4.266666 6.4L723.2 512H512v-149.333333h108.8c-8.533333-12.8-17.066667-27.733333-25.6-42.666667H512V110.933333c6.4 2.133333 12.8 2.133333 19.2 4.266667 4.266667-23.466667 10.666667-46.933333 21.333333-66.133333-21.333333-2.133333-40.533333-4.266667-61.866666-4.266667C219.733333 44.8 0 264.533333 0 533.333333c0 270.933333 219.733333 490.666667 490.666667 490.666667s490.666667-219.733333 490.666666-490.666667c-2.133333-106.666667-36.266667-204.8-93.866666-285.866666zM386.133333 100.266667c-61.866667 42.666667-113.066667 121.6-142.933333 219.733333H98.133333c59.733333-108.8 164.266667-189.866667 288-219.733333zM76.8 362.666667h155.733333c-10.666667 46.933333-17.066667 96-19.2 149.333333H42.666667c4.266667-53.333333 14.933333-102.4 34.133333-149.333333zM42.666667 554.666667h170.666666c2.133333 53.333333 8.533333 102.4 19.2 149.333333H76.8c-19.2-46.933333-29.866667-96-34.133333-149.333333z m53.333333 192h147.2c29.866667 100.266667 81.066667 179.2 142.933333 221.866666C262.4 938.666667 155.733333 857.6 96 746.666667zM469.333333 957.866667c-76.8-12.8-142.933333-96-181.333333-211.2H469.333333v211.2zM469.333333 704h-192c-10.666667-46.933333-19.2-96-19.2-149.333333h213.333334v149.333333z m0-192H256c2.133333-53.333333 8.533333-102.4 19.2-149.333333h192v149.333333z m0-192h-179.2c38.4-115.2 104.533333-196.266667 179.2-209.066667V320z m42.666667 234.666667h211.2c-2.133333 53.333333-8.533333 102.4-19.2 149.333333h-192v-149.333333z m0 192h179.2c-38.4 115.2-104.533333 198.4-179.2 211.2V746.666667z m81.066667 221.866666c61.866667-42.666667 113.066667-121.6 142.933333-221.866666h147.2c-59.733333 110.933333-164.266667 192-290.133333 221.866666zM746.666667 704c10.666667-46.933333 17.066667-96 19.2-149.333333h170.666666c-2.133333 53.333333-12.8 102.4-32 149.333333H746.666667z" fill="#ffffff" p-id="5481"></path><path d="M753.066667 394.666667s0 2.133333-2.133334 2.133333l2.133334-2.133333z" fill="#ffffff" p-id="5482"></path></svg>