<?xml version="1.0" standalone="no"?><!DOCTYPE svg PUBLIC "-//W3C//DTD SVG 1.1//EN" "http://www.w3.org/Graphics/SVG/1.1/DTD/svg11.dtd"><svg t="1708433817172" class="icon" viewBox="0 0 1136 1024" version="1.1" xmlns="http://www.w3.org/2000/svg" p-id="7201" xmlns:xlink="http://www.w3.org/1999/xlink" width="221.875" height="200"><path d="M265.49969068 634.20671297l226.98046212 101.72058835c13.73768206 5.94270525 20.22063285 9.9559604 33.95831491 9.9559604a66.21871393 66.21871393 0 0 0 33.26371298-8.79829075 26.39487161 26.39487161 0 0 1 4.01325517-2.23816145l214.32327253-90.1438899a27.47536342 27.47536342 0 0 1 20.83805694 0l75.32571605 30.94837302c18.13682709 7.48626476 18.29118345 29.86788122 0.30871205 37.50850235L537.70645411 856.86520857a27.16665206 27.16665206 0 0 1-21.45548101-0.15435635L178.28856414 707.3714461c-17.75093722-7.94933248-17.44222517-30.02223758 0.61742408-37.4313245l86.59370245-35.73340863z m-10.26467244-175.11685432a27.01229571 27.01229571 0 0 1 20.45216636 1e-8l222.27260572 90.99284749 2.85558551 0.92613613a109.74709868 109.74709868 0 0 0 62.05110241-1.0804918L777.96153056 459.24421434a27.47536342 27.47536342 0 0 1 20.83805626-0.15435569l76.17467432 31.41144074c17.98247141 7.40908693 18.36836129 29.55916918 0.61742408 37.35414666L537.78363194 677.27203068a26.93511786 26.93511786 0 0 1-21.68701453 0L178.28856414 527.9326239c-17.75093722-7.87215465-17.44222517-29.94505907 0.61742408-37.35414599zM516.32815162 166.58528454a27.39818558 27.39818558 0 0 1 21.1467683-1e-8L876.05475294 311.06247787c17.75093722 7.5634426 17.9052929 29.40481349 0.30871204 37.19979031l-338.57983304 149.72529666a26.93511786 26.93511786 0 0 1-21.68701453 0L177.43960654 348.18508966c-17.51940301-7.71779897-17.36504733-29.6363477 0.30871204-37.19978964z" p-id="7202" fill="#ffffff"></path></svg>